# xmcd CD database file
#
# Track frame offsets:
#	150
#	19193
#	36227
#	47139
#	61853
#	85526
#	105692
#	121215
#	128972
#	143394
#	152900
#	169231
#	189501
#	206592
#	231339
#	243890
#	255897
#	269562
#	281120
#	293092
#
# Disc length: 4146 seconds
#
# Revision: 0
# Processed by: cddbd v1.5.2PL0 Copyright (c) Steve Scherf et al.
# Submitted via: CDex 1.70beta2
#
DISCID=1a103014
DTITLE=Stéphane Grappelli - Grappelli Memory
DYEAR=1900
DGENRE=Jazz
TTITLE0=Stéphanie Grappelli - Let's Fall In Love
TTITLE1=Stéphanie Grappelli - Milou
TTITLE2=Stéphanie Grappelli - Time On My Hands
TTITLE3=Stéphanie Grappelli - Georges
TTITLE4=Stéphanie Grappelli - Tea For Two
TTITLE5=Stéphanie Grappelli - Smoke Gets In Your Eyes
TTITLE6=Stéphanie Grappelli - What Am I Here For
TTITLE7=Stéphanie Grappelli - Adèle
TTITLE8=Stéphanie Grappelli - I Got It Bad and That Ain't Good
TTITLE9=Stéphanie Grappelli - L'internationale
TTITLE10=Stéphanie Grappelli - Bicyclette
TTITLE11=Stéphanie Grappelli - Pic-nic
TTITLE12=Stéphanie Grappelli - Coltrane
TTITLE13=Stéphanie Grappelli - Blues de la pluie
TTITLE14=Stéphanie Grappelli - Fly - Tox
TTITLE15=Stéphanie Grappelli - Rain Check
TTITLE16=Stéphanie Grappelli - Flamingo
TTITLE17=Stéphanie Grappelli - Denise
TTITLE18=Stéphanie Grappelli - Tabou
TTITLE19=Stéphanie Grappelli - I Hear Music
EXTD=
EXTT0=
EXTT1=
EXTT2=
EXTT3=
EXTT4=
EXTT5=
EXTT6=
EXTT7=
EXTT8=
EXTT9=
EXTT10=
EXTT11=
EXTT12=
EXTT13=
EXTT14=
EXTT15=
EXTT16=
EXTT17=
EXTT18=
EXTT19=
PLAYORDER=
